<?xml version="1.0" encoding="UTF-8" standalone="no"?>
<!-- Created with Inkscape (http://www.inkscape.org/) -->

<svg
   width="70.520958mm"
   height="75.557846mm"
   viewBox="0 0 70.520958 75.557846"
   version="1.1"
   id="svg5"
   xml:space="preserve"
   inkscape:export-filename="3.svg"
   inkscape:export-xdpi="96"
   inkscape:export-ydpi="96"
   sodipodi:docname="1.svg"
   xmlns:inkscape="http://www.inkscape.org/namespaces/inkscape"
   xmlns:sodipodi="http://sodipodi.sourceforge.net/DTD/sodipodi-0.dtd"
   xmlns="http://www.w3.org/2000/svg"
   xmlns:svg="http://www.w3.org/2000/svg"><sodipodi:namedview
     id="namedview7"
     pagecolor="#ffffff"
     bordercolor="#000000"
     borderopacity="0.25"
     inkscape:showpageshadow="2"
     inkscape:pageopacity="0.0"
     inkscape:pagecheckerboard="0"
     inkscape:deskcolor="#d1d1d1"
     inkscape:document-units="mm"
     showgrid="false"
     inkscape:zoom="0.46769781"
     inkscape:cx="-117.5973"
     inkscape:cy="461.83667"
     inkscape:window-width="1366"
     inkscape:window-height="705"
     inkscape:window-x="-8"
     inkscape:window-y="-8"
     inkscape:window-maximized="1"
     inkscape:current-layer="layer1" /><defs
     id="defs2" /><g
     inkscape:label="Capa 1"
     inkscape:groupmode="layer"
     id="layer1"
     transform="translate(-48.827359,-201.91447)"><path
       d="m 74.013544,235.91533 c 0,0.6939 0.564165,1.25933 1.259298,1.25933 0.695133,0 1.259302,-0.56543 1.259302,-1.25933 0,-0.69385 -0.564169,-1.25928 -1.259302,-1.25928 -0.695133,0 -1.259298,0.56543 -1.259298,1.25928 z m 2.5186,22.66738 c 0,-0.69385 -0.564169,-1.25929 -1.259302,-1.25929 -0.695133,0 -1.259298,0.56544 -1.259298,1.25929 0,0.6939 0.564165,1.25933 1.259298,1.25933 0.695133,0 1.259302,-0.56543 1.259302,-1.25933 z M 66.457752,235.91533 c 0,-0.69385 -0.564168,-1.25928 -1.259301,-1.25928 -0.695133,0 -1.259298,0.56543 -1.259298,1.25928 0,0.6939 0.564165,1.25933 1.259298,1.25933 0.695133,0 1.259301,-0.56543 1.259301,-1.25933 z m 0,15.11158 c 0,-0.69385 -0.564168,-1.25928 -1.259301,-1.25928 -0.695133,0 -1.259298,0.56543 -1.259298,1.25928 0,0.6939 0.564165,1.25933 1.259298,1.25933 0.695133,0 1.259301,-0.56543 1.259301,-1.25933 z m 7.555792,-27.70456 c 0,0.6939 0.564165,1.25929 1.259298,1.25929 0.695133,0 1.259302,-0.56539 1.259302,-1.25929 0,-0.69389 -0.564169,-1.25928 -1.259302,-1.25928 -0.695133,0 -1.259298,0.56539 -1.259298,1.25928 z m -7.555792,1.25929 v 7.78754 c 1.067882,0.38028 1.906578,1.22025 2.285624,2.28687 h 2.98454 c 0.521347,-1.46333 1.905316,-2.51862 3.544926,-2.51862 2.082882,0 3.777892,1.69503 3.777892,3.7779 0,1.63962 -1.056554,3.0236 -2.51859,3.54619 v 15.57503 c 1.462036,0.5226 2.51859,1.90659 2.51859,3.54616 0,1.63961 -1.056554,3.02359 -2.51859,3.5462 v 4.00959 c 0,0.69513 -0.562912,1.25932 -1.259302,1.25932 -0.696394,0 -1.259298,-0.56419 -1.259298,-1.25932 v -4.01083 c -1.285745,-0.45691 -2.244071,-1.58298 -2.459414,-2.96568 l -4.727408,-4.72614 c -0.0038,-0.002 -0.0038,-0.01 -0.0076,-0.01 -0.492385,0.23654 -1.037659,0.38028 -1.620713,0.38028 -2.082881,0 -3.777897,-1.69501 -3.777897,-3.77788 0,-2.08288 1.695016,-3.7779 3.777897,-3.7779 2.082881,0 3.777895,1.69502 3.777895,3.7779 0,0.5818 -0.143547,1.12834 -0.380287,1.62072 0.0038,0.004 0.0076,0.005 0.01146,0.01 l 3.660778,3.66204 c 0.44202,-0.58433 1.043961,-1.0301 1.74539,-1.2807 V 239.4641 c -1.067867,-0.37886 -1.906563,-1.21902 -2.285609,-2.28563 h -2.984541 c -0.521347,1.46328 -1.905316,2.51856 -3.544926,2.51856 -2.082881,0 -3.777895,-1.69502 -3.777895,-3.77789 0,-1.63957 1.056554,-3.02356 2.518599,-3.54616 v -9.04682 c 0,-0.69513 0.562908,-1.25928 1.259296,-1.25928 h 6.529467 c 0.379051,-1.06667 1.217742,-1.90658 2.285628,-2.28691 v -4.0096 c 0,-0.69514 0.562904,-1.25928 1.259298,-1.25928 0.696389,0 1.259299,0.56414 1.259299,1.25928 v 4.0096 c 1.462048,0.52264 2.518603,1.90657 2.518603,3.54619 0,2.08287 -1.695022,3.7779 -3.777902,3.7779 -1.63961,0 -3.023579,-1.05529 -3.544926,-2.51862 z m 49.909788,24.23522 c 1.8751,-1.64843 2.98077,-4.03353 2.98077,-6.60503 0,-2.6949 -1.1976,-5.17068 -3.25529,-6.83295 0.48483,-1.01121 0.73668,-2.1131 0.73668,-3.24145 0,-2.59919 -1.36381,-4.99311 -3.51596,-6.35942 0.6498,-1.13212 0.99736,-2.40906 0.99736,-3.71494 0,-3.24901 -2.06399,-6.07362 -5.05104,-7.11629 0.009,-0.14755 0.0138,-0.29319 0.0138,-0.43931 0,-4.16703 -3.38877,-7.5558 -7.55578,-7.5558 -1.01627,0 -2.006064,0.20657 -2.930388,0.60447 -1.082959,-3.27924 -4.197204,-5.64168 -7.773604,-5.64168 -5.299132,0 -7.655284,4.7803 -8.160265,7.309 -0.0085,0.0428 0.0024,0.0819 0,0.1247 -0.0037,0.0428 -0.02523,0.078 -0.02523,0.12232 V 268.582 c -0.284625,3.57515 -3.320777,6.37205 -6.926145,6.37205 -3.592778,0 -6.620131,-2.807 -6.893401,-6.39222 -0.05036,-0.65611 -0.634687,-1.16357 -1.292038,-1.16357 -0.392902,0 -0.763137,0.18371 -1.002405,0.49613 -0.977213,1.28575 -2.448077,2.02244 -4.034794,2.02244 -2.778014,0 -5.037193,-2.25918 -5.037193,-5.03718 0,-1.14344 0.397947,-2.23652 1.153516,-3.16211 0.340023,-0.41694 0.377766,-1.00494 0.09191,-1.46205 -0.284621,-0.45691 -0.82358,-0.6838 -1.355002,-0.55909 -0.42184,0.098 -0.798396,0.14612 -1.149743,0.14612 -2.778013,0 -5.037193,-2.25923 -5.037193,-5.03723 0,-2.07655 1.318487,-3.96553 3.279214,-4.70097 0.467198,-0.17515 0.787059,-0.60822 0.816026,-1.1044 0.02904,-0.49743 -0.238025,-0.96586 -0.678774,-1.1938 -2.108065,-1.0868 -3.416476,-3.23136 -3.416476,-5.59381 0,-2.22137 1.142184,-4.23629 3.056315,-5.38981 0.298472,-0.17992 0.508758,-0.476 0.581798,-0.81726 0.07178,-0.34269 -0.0012,-0.69766 -0.201472,-0.98352 -0.600684,-0.85757 -0.918027,-1.8537 -0.918027,-2.88381 0,-2.09168 1.332337,-3.98442 3.313217,-4.71101 0.391616,-0.14374 0.687574,-0.47214 0.789581,-0.87646 0.100755,-0.40552 -0.0062,-0.83494 -0.284621,-1.14596 -0.838696,-0.93569 -1.299597,-2.12196 -1.299597,-3.34093 0,-2.44056 1.749165,-4.51962 4.156943,-4.94527 0.337499,-0.0605 0.638465,-0.2556 0.828619,-0.5415 0.190144,-0.28605 0.255636,-0.6372 0.182577,-0.97218 -0.08815,-0.39266 -0.130984,-0.75182 -0.130984,-1.09685 0,-2.778 2.259185,-5.03722 5.037198,-5.03722 1.090553,0 2.142067,0.36411 3.042465,1.05282 0.366438,0.27938 0.856325,0.33744 1.275671,0.15087 0.421839,-0.18752 0.706465,-0.58937 0.745503,-1.04777 0.239262,-2.91147 2.717567,-5.19334 5.640397,-5.19334 1.402863,0 2.562684,0.45073 3.544937,1.37765 0.507492,0.4773 1.304631,0.45311 1.780648,-0.0528 0.477272,-0.50624 0.454585,-1.30212 -0.05169,-1.77937 -1.451967,-1.37013 -3.226325,-2.06403 -5.273934,-2.06403 -3.576416,0 -6.69066,2.36245 -7.773658,5.6417 -0.924325,-0.3979 -1.914136,-0.60447 -2.930386,-0.60447 -4.167024,0 -7.555793,3.38875 -7.555793,7.55579 0,0.14612 0.0052,0.29224 0.0138,0.43932 -2.987058,1.04266 -5.051049,3.86727 -5.051049,7.11629 0,1.30587 0.34759,2.58282 0.997365,3.71492 -2.152142,1.36633 -3.515959,3.76024 -3.515959,6.35944 0,1.12834 0.251876,2.23022 0.736689,3.24144 -2.057694,1.66228 -3.255288,4.13805 -3.255288,6.83296 0,2.57149 1.105664,4.9566 2.980761,6.60503 -1.839838,1.40663 -2.980761,3.61544 -2.980761,5.98794 0,3.89503 2.963127,7.1113 6.753617,7.51301 -0.302232,0.81602 -0.457108,1.67736 -0.457108,2.56139 0,4.16705 3.388775,7.5558 7.555794,7.5558 1.564051,0 3.05254,-0.47501 4.301766,-1.34491 1.284484,3.71993 4.834446,6.38209 8.920871,6.38209 4.921331,0 9.068212,-3.83078 9.44095,-8.71936 0.0012,-0.0143 -0.0061,-0.0333 -0.0061,-0.048 0.0012,-0.019 0.0098,-0.0285 0.0098,-0.048 v -59.04867 c 0.186333,-0.77324 1.42928,-5.17573 5.666823,-5.17573 2.922829,0 5.401117,2.28186 5.640393,5.19333 0.03901,0.45835 0.323647,0.8601 0.745501,1.04778 0.419367,0.18657 0.909219,0.1285 1.275679,-0.15089 0.900394,-0.68885 1.951914,-1.05281 3.042454,-1.05281 2.77802,0 5.03719,2.25921 5.03719,5.03723 0,0.34507 -0.0428,0.70393 -0.13097,1.09683 -0.073,0.33509 -0.007,0.68633 0.18258,0.9722 0.19013,0.28604 0.49112,0.48104 0.82861,0.54149 2.40778,0.4255 4.15695,2.50472 4.15695,4.94527 0,1.21896 -0.46092,2.40524 -1.2996,3.34092 -0.27829,0.3108 -0.38533,0.74044 -0.28462,1.14596 0.10203,0.40408 0.39795,0.73287 0.78958,0.87647 1.98088,0.7266 3.31321,2.61933 3.31321,4.71101 0,1.03011 -0.31736,2.02624 -0.91802,2.88382 -0.20023,0.28605 -0.2733,0.64096 -0.20147,0.98351 0.073,0.34126 0.28333,0.63721 0.58179,0.81726 1.91413,1.15353 3.05631,3.16843 3.05631,5.38982 0,2.36245 -1.30841,4.50701 -3.41647,5.5938 -0.44074,0.22799 -0.70772,0.69637 -0.67876,1.1938 0.029,0.49618 0.34882,0.92939 0.81603,1.1044 1.96072,0.73545 3.2792,2.62443 3.2792,4.70096 0,2.77802 -2.25917,5.03723 -5.03719,5.03723 -0.35134,0 -0.72787,-0.048 -1.14974,-0.14611 -0.5289,-0.1247 -1.06915,0.10191 -1.355,0.5591 -0.28586,0.45692 -0.24807,1.04525 0.0919,1.46204 0.75559,0.92559 1.15352,2.01867 1.15352,3.16211 0,2.778 -2.25919,5.03718 -5.03718,5.03718 -1.59175,0 -3.06012,-0.74549 -4.02724,-2.04633 -0.32489,-0.43455 -0.89033,-0.61203 -1.40538,-0.44312 -0.186377,0.0619 -0.350059,0.16374 -0.482302,0.29367 -0.234229,0.20895 -0.389147,0.50623 -0.41432,0.8412 -0.273251,3.58524 -3.300638,6.39218 -6.893411,6.39218 -1.58293,0 -3.076466,-0.52007 -4.31939,-1.50359 -0.547794,-0.43217 -1.337375,-0.33888 -1.769323,0.20514 -0.431923,0.54525 -0.338726,1.33739 0.205289,1.76931 1.668568,1.31974 3.759003,2.04761 5.883449,2.04761 4.088939,0 7.641422,-2.6672 8.923378,-6.39094 1.24545,0.87648 2.73143,1.35376 4.29925,1.35376 4.16701,0 7.55579,-3.38875 7.55579,-7.55579 0,-0.88404 -0.15488,-1.74537 -0.4571,-2.5614 3.79049,-0.40171 6.75362,-3.61798 6.75362,-7.513 0,-2.3725 -1.14092,-4.58132 -2.98076,-5.98795 z m -22.205214,9.76585 c 0,0.69513 0.562911,1.25933 1.259295,1.25933 1.836055,0 3.777898,1.94179 3.777898,3.7779 0,0.69513 0.562911,1.25928 1.259291,1.25928 0.6964,0 1.25931,-0.56415 1.25931,-1.25928 0,-3.23641 -3.060104,-6.29652 -6.296499,-6.29652 -0.696384,0 -1.259295,0.56416 -1.259295,1.25929 z m 11.333684,-34.00107 c -1.83606,0 -3.77789,-1.94181 -3.77789,-3.7779 0,-0.69513 -0.56291,-1.25928 -1.25931,-1.25928 -0.69638,0 -1.259291,0.56415 -1.259291,1.25928 0,3.23641 3.060091,6.29651 6.296491,6.29651 0.6964,0 1.25931,-0.56415 1.25931,-1.25928 0,-0.69513 -0.56291,-1.25933 -1.25931,-1.25933 z m -15.111582,27.7046 c 0.696385,0 1.259295,-0.5642 1.259295,-1.25933 0,-1.83604 1.941844,-3.7779 3.777898,-3.7779 0.696397,0 1.259308,-0.56414 1.259308,-1.25928 0,-0.69513 -0.562911,-1.25928 -1.259308,-1.25928 -3.236394,0 -6.296488,3.06007 -6.296488,6.29646 0,0.69513 0.562898,1.25933 1.259295,1.25933 z m 5.037193,-15.11158 c 0.696397,0 1.259308,-0.5642 1.259308,-1.25933 0,-0.69514 -0.562911,-1.25928 -1.259308,-1.25928 -1.836054,0 -3.777898,-1.94186 -3.777898,-3.7779 0,-0.69513 -0.56291,-1.25928 -1.259295,-1.25928 -0.696397,0 -1.259295,0.56415 -1.259295,1.25928 0,3.2364 3.060094,6.29651 6.296488,6.29651 z m 12.592989,-5.03723 c -0.6964,0 -1.25929,0.56419 -1.25929,1.25934 0,1.83604 -1.94185,3.77789 -3.7779,3.77789 -0.6964,0 -1.2593,0.56415 -1.2593,1.25929 0,0.69513 0.5629,1.25928 1.2593,1.25928 3.23639,0 6.29649,-3.06007 6.29649,-6.29646 0,-0.69515 -0.56291,-1.25934 -1.2593,-1.25934 z m -5.03719,15.11158 c -0.6964,0 -1.2593,0.56421 -1.2593,1.25934 0,0.69512 0.5629,1.25928 1.2593,1.25928 1.83605,0 3.7779,1.94185 3.7779,3.7779 0,0.69513 0.56289,1.25928 1.25929,1.25928 0.69639,0 1.2593,-0.56415 1.2593,-1.25928 0,-3.23641 -3.0601,-6.29652 -6.29649,-6.29652 z M 89.125133,219.54446 c 0,-3.2364 3.060094,-6.2965 6.296488,-6.2965 0.696397,0 1.259308,0.56419 1.259308,1.25932 0,0.69514 -0.562911,1.25928 -1.259308,1.25928 -1.836054,0 -3.777898,1.94185 -3.777898,3.7779 0,0.69514 -0.56291,1.25928 -1.259295,1.25928 -0.696397,0 -1.259295,-0.56414 -1.259295,-1.25928 z"
       id="android-brain"
       style="fill:#ffffff;fill-opacity:1;fill-rule:evenodd;stroke:none;stroke-width:1.2593" /></g></svg>
