<?xml version="1.0" encoding="UTF-8" standalone="no"?>
<!-- Created with Inkscape (http://www.inkscape.org/) -->

<svg
   width="100.78922mm"
   height="59.918133mm"
   viewBox="0 0 100.78922 59.918133"
   version="1.1"
   id="svg5"
   xml:space="preserve"
   inkscape:export-filename="4.png"
   inkscape:export-xdpi="96"
   inkscape:export-ydpi="96"
   sodipodi:docname="2.svg"
   xmlns:inkscape="http://www.inkscape.org/namespaces/inkscape"
   xmlns:sodipodi="http://sodipodi.sourceforge.net/DTD/sodipodi-0.dtd"
   xmlns="http://www.w3.org/2000/svg"
   xmlns:svg="http://www.w3.org/2000/svg"><sodipodi:namedview
     id="namedview7"
     pagecolor="#ffffff"
     bordercolor="#000000"
     borderopacity="0.25"
     inkscape:showpageshadow="2"
     inkscape:pageopacity="0.0"
     inkscape:pagecheckerboard="0"
     inkscape:deskcolor="#d1d1d1"
     inkscape:document-units="mm"
     showgrid="false"
     inkscape:zoom="0.46769781"
     inkscape:cx="-117.5973"
     inkscape:cy="461.83667"
     inkscape:window-width="1366"
     inkscape:window-height="705"
     inkscape:window-x="-8"
     inkscape:window-y="-8"
     inkscape:window-maximized="1"
     inkscape:current-layer="layer1" /><defs
     id="defs2" /><g
     inkscape:label="Capa 1"
     inkscape:groupmode="layer"
     id="layer1"
     transform="translate(-32.53275,-33.322528)"><path
       style="fill:#ffffff;fill-opacity:1;stroke-width:0.239085"
       d="m 72.90347,92.820426 c -3.154649,-1.297576 -5.323008,-4.398915 -5.323008,-7.613341 0,-1.001625 -0.01352,-1.01778 -1.178169,-1.404605 -1.314741,-0.436685 -2.682069,-1.348483 -4.386962,-2.92542 -1.936475,-1.791141 -3.582106,-2.397415 -7.674069,-2.82723 -5.69763,-0.598473 -8.146775,-1.56559 -13.440115,-5.30721 -1.458134,-1.030688 -3.750436,-2.451914 -5.094002,-3.158282 -3.439227,-1.808134 -3.482267,-1.927202 -3.131085,-8.662161 0.372988,-7.153198 1.363748,-11.083579 4.298627,-17.052823 1.987079,-4.041513 3.258196,-6.004945 5.043135,-7.789884 3.323005,-3.323005 7.25148,-3.670535 10.034335,-0.88768 1.208085,1.208082 1.991109,3.136313 1.974863,4.863174 -0.02696,2.865646 -1.77079,4.591379 -5.083601,5.030839 -1.242594,0.164835 -1.273154,0.188359 -1.803995,1.388684 -1.295645,2.929686 -1.276225,4.492028 0.102318,8.230845 0.403509,1.094386 0.733655,2.354729 0.733655,2.800767 v 0.810977 l 1.088129,-0.466426 c 3.351656,-1.436688 7.458408,-0.907009 10.081657,1.300309 0.721316,0.606948 1.023611,0.593662 1.023611,-0.04498 0,-0.674617 1.243617,-2.821469 2.227311,-3.844995 1.256181,-1.307046 2.405215,-2.05009 3.953197,-2.55641 1.158626,-0.378968 1.226983,-0.449989 1.570551,-1.631826 0.743852,-2.558757 2.782313,-4.719586 5.233619,-5.547796 0.808125,-0.273037 1.731953,-0.362435 3.108122,-0.300776 2.398642,0.10747 3.800552,0.737379 5.510241,2.475863 l 1.180841,1.200726 1.341159,-1.341161 c 4.447309,-4.447306 12.151213,-2.402545 13.653708,3.623949 0.26104,1.047058 0.33182,1.116259 1.5268,1.492946 1.618617,0.510225 3.289547,1.625564 4.320897,2.884183 0.81886,0.999324 2.03227,3.334954 2.03668,3.920319 0.001,0.18264 0.37089,0.01513 0.89891,-0.407499 2.70898,-2.168287 6.76573,-2.65124 10.07201,-1.19907 0.57558,0.252802 1.07409,0.459643 1.1078,0.459643 0.0337,0 0.10661,-0.67243 0.16193,-1.494289 0.0652,-0.968119 0.3486,-2.041504 0.80487,-3.048348 0.96943,-2.13919 0.96956,-4.630219 2.4e-4,-6.993271 -0.58095,-1.416428 -0.73922,-1.614179 -1.29397,-1.61667 -1.1476,-0.0051 -3.15571,-0.667767 -4.01879,-1.326075 -2.46759,-1.882121 -2.33026,-6.015475 0.28681,-8.632548 1.9213,-1.921306 4.70213,-2.412739 7.16439,-1.266105 4.45522,2.074734 9.92104,11.853219 11.57487,20.707753 0.34195,1.830835 0.72194,6.909573 0.73071,9.766251 0.01,3.095949 -0.25209,3.517561 -3.1366,5.05541 -2.27896,1.215015 -4.39384,2.566014 -6.34663,4.054284 -1.26402,0.963344 -4.10887,2.53649 -5.75866,3.184435 -1.5881,0.623711 -4.13234,1.133339 -6.70996,1.344052 -3.97739,0.325136 -5.43716,0.921195 -8.12115,3.316076 -1.47882,1.319524 -3.15301,2.31936 -4.375447,2.613034 -0.58431,0.140381 -0.63289,0.259031 -0.74445,1.818096 -0.31225,4.365771 -3.702191,7.424499 -8.228345,7.424499 -2.336292,0 -4.342316,-0.889724 -5.867655,-2.602446 l -1.031274,-1.15798 -1.195436,1.222726 c -1.787281,1.828088 -3.117648,2.401778 -5.738068,2.474411 -1.606707,0.04452 -2.408323,-0.04589 -3.164552,-0.356937 z m 5.461591,-2.293806 c 1.194491,-0.576464 2.356577,-1.762621 2.881154,-2.940831 0.416699,-0.935909 0.442066,-1.986433 0.443559,-18.369719 0.0014,-16.40958 -0.02312,-17.432501 -0.441974,-18.373298 -1.663359,-3.736019 -6.727372,-4.676092 -9.530999,-1.769317 -1.411594,1.46353 -1.815798,2.407325 -1.815798,4.239803 0,1.835647 0.389322,2.730717 1.892122,4.35008 0.868099,0.935437 1.00792,1.21424 0.839317,1.673603 -0.140836,0.383708 -0.426283,0.573633 -0.939441,0.625055 -0.590609,0.05919 -0.923495,-0.112481 -1.67463,-0.863622 -0.917134,-0.917135 -2.198823,-3.235412 -2.198823,-3.977163 0,-0.972972 -2.431203,0.145222 -3.922794,1.804229 -1.387091,1.542777 -1.894325,3.061614 -1.773965,5.311856 0.195324,3.651763 2.775016,6.40876 6.396117,6.835722 1.680798,0.198181 1.93059,0.358023 1.93059,1.235388 0,0.515848 -0.146588,0.764327 -0.537944,0.911864 -0.795824,0.300018 -3.083997,-0.08645 -4.587624,-0.774827 l -1.319409,-0.604045 -0.455997,0.641889 c -0.903531,1.271867 -1.281334,2.520752 -1.282358,4.239013 -0.0014,2.278951 0.67452,3.817908 2.348742,5.348052 1.528691,1.397136 2.954779,1.933248 5.142551,1.933248 1.380184,0 1.846821,-0.121548 3.225406,-0.84011 0.924355,-0.481807 1.793291,-0.782501 2.037378,-0.705029 0.500677,0.158908 0.779523,0.883753 0.580821,1.509807 -0.195868,0.617129 -2.300846,1.709414 -4.17627,2.167091 l -1.573012,0.383877 0.07775,1.192816 c 0.141662,2.173401 1.693137,4.219616 3.812548,5.028286 1.145099,0.436919 3.500422,0.32803 4.622987,-0.213718 z m 14.475644,-0.112239 c 1.770528,-0.904099 3.191016,-3.216479 3.191016,-5.194599 0,-0.737987 -0.04527,-0.772082 -1.374752,-1.035829 -2.718403,-0.539281 -4.806076,-1.879241 -4.488219,-2.88073 0.302269,-0.952369 0.855763,-0.977502 2.635486,-0.119669 1.441327,0.694725 1.925115,0.807528 3.488161,0.813321 3.042076,0.01125 5.341883,-1.456047 6.734573,-4.296823 0.74373,-1.51703 0.73232,-4.448526 -0.0232,-5.977155 -0.97002,-1.962486 -0.97613,-1.965922 -2.32543,-1.308017 -1.679457,0.818886 -4.097837,1.170163 -4.816081,0.69955 -1.105877,-0.724597 -0.36557,-2.021481 1.153933,-2.021481 1.422321,0 3.349428,-0.84428 4.500498,-1.971695 3.91648,-3.836029 2.67821,-10.118979 -2.411447,-12.235575 l -0.87145,-0.3624 -0.40342,1.233414 c -0.609617,1.863818 -2.176179,3.934782 -3.265459,4.316861 -0.551444,0.193431 -1.402196,-0.471272 -1.402182,-1.095553 0,-0.309383 0.332005,-0.789285 0.809729,-1.170467 1.100923,-0.878425 2.059303,-2.860775 2.059303,-4.259541 0,-4.53907 -4.497159,-7.528539 -8.487569,-5.642075 -1.436758,0.679233 -2.315211,1.571657 -2.969229,3.016481 -0.475488,1.05043 -0.487018,1.4832 -0.487018,18.290094 0,16.806892 0.01139,17.239663 0.487018,18.290092 0.650502,1.437037 1.526137,2.331098 2.969229,3.031713 0.9884,0.479861 1.464572,0.563641 2.749491,0.483759 0.944372,-0.0587 1.943633,-0.295547 2.547047,-0.603675 z M 60.05756,74.890786 c 0.0095,-2.388198 0.47548,-4.043351 1.559775,-5.540176 l 0.704326,-0.972292 -0.811229,-1.136974 c -0.446175,-0.625338 -1.06375,-1.890096 -1.372391,-2.810578 -0.761684,-2.271635 -2.551518,-4.126532 -4.597232,-4.764349 -2.807963,-0.875474 -6.088369,-0.09245 -8.351286,1.993438 -0.583412,0.537769 -1.228199,0.977764 -1.432858,0.977764 -1.175991,0 -1.411687,-0.698305 -0.761183,-2.255181 0.202013,-0.483484 0.46874,-1.413977 0.592728,-2.067765 0.228266,-1.203638 0.0093,-2.291062 -0.838733,-4.164614 -0.633258,-1.39911 -0.905063,-3.016763 -0.762823,-4.539965 0.143583,-1.537598 1.201373,-4.623268 2.070417,-6.039598 0.459771,-0.749316 0.532757,-0.77703 2.046225,-0.77703 2.521959,0 3.697477,-0.89407 3.697477,-2.812214 0,-1.878739 -1.444178,-3.85346 -3.156119,-4.315573 -3.005571,-0.811309 -6.214634,2.177764 -9.57749,8.920933 -3.113235,6.242628 -4.406651,12.207287 -4.198388,19.361068 l 0.07643,2.625035 2.390861,1.288309 c 1.314975,0.708569 3.416027,2.021788 4.669005,2.918269 5.058892,3.619532 7.362494,4.538239 12.784288,5.098544 2.608763,0.269597 5.259896,0.812477 5.259896,1.077085 0,0.01533 0.0037,-0.913534 0.0083,-2.064136 z m 51.38917,0.911 c 1.57464,-0.150526 3.34987,-0.389938 3.94493,-0.532022 1.82436,-0.435607 5.27033,-2.197274 7.62328,-3.89722 2.36964,-1.711992 5.12645,-3.408417 6.87329,-4.229527 0.65473,-0.30776 1.10548,-0.697988 1.18855,-1.028964 0.0736,-0.293252 0.0206,-2.540582 -0.11743,-4.994067 -0.40191,-7.134264 -1.3307,-10.731592 -4.33046,-16.77246 -3.26132,-6.567613 -6.4668,-9.516522 -9.44935,-8.693 -1.20306,0.332181 -2.6128,1.747027 -2.94964,2.960322 -0.34728,1.250925 -0.33503,1.639538 0.0833,2.640842 0.44132,1.05623 1.52178,1.537776 3.45032,1.537776 1.73244,0 2.02107,0.290077 3.17205,3.187806 0.69815,1.757727 0.77636,2.203026 0.78375,4.462951 0.007,2.29432 -0.0518,2.633884 -0.6885,3.944923 -0.92037,1.894955 -0.98293,4.17752 -0.16489,6.015141 0.4404,0.989319 0.4961,1.332362 0.28149,1.733375 -0.43598,0.814644 -1.35555,0.625743 -2.65906,-0.546223 -1.45055,-1.304181 -2.93757,-2.014971 -4.72753,-2.259765 -3.594,-0.491511 -7.02271,1.667758 -8.03312,5.058961 -0.20248,0.67956 -0.63426,1.665917 -0.95949,2.191906 -1.18979,1.924128 -1.18024,1.871751 -0.51856,2.84679 1.15019,1.694909 1.62441,3.39761 1.54091,5.532682 l -0.0759,1.939725 1.43452,-0.413133 c 0.78899,-0.227224 2.72286,-0.53629 4.29751,-0.686819 z"
       id="path267" /></g></svg>
