<?xml version="1.0" encoding="UTF-8" standalone="no"?>
<svg
   height="1750.8276"
   style="clip-rule:evenodd;fill-rule:evenodd;stroke-linejoin:round;stroke-miterlimit:2"
   version="1.1"
   viewBox="0 0 1740.7734 1750.8276"
   width="1740.7734"
   xml:space="preserve"
   id="svg5"
   sodipodi:docname="3.svg"
   xmlns:inkscape="http://www.inkscape.org/namespaces/inkscape"
   xmlns:sodipodi="http://sodipodi.sourceforge.net/DTD/sodipodi-0.dtd"
   xmlns="http://www.w3.org/2000/svg"
   xmlns:svg="http://www.w3.org/2000/svg"><defs
     id="defs9" /><sodipodi:namedview
     id="namedview7"
     pagecolor="#ffffff"
     bordercolor="#000000"
     borderopacity="0.25"
     inkscape:showpageshadow="2"
     inkscape:pageopacity="0.0"
     inkscape:pagecheckerboard="0"
     inkscape:deskcolor="#d1d1d1"
     showgrid="false" /><g
     id="ICON"
     style="fill:#ffffff;fill-opacity:1"
     inkscape:export-filename="..\Desktop\3.png"
     inkscape:export-xdpi="96"
     inkscape:export-ydpi="96"
     transform="matrix(30.013333,0,0,30.013333,-90.040021,-90.039965)"><path
       d="M 59,43.335 H 5 V 34 c 0,-0.552 -0.448,-1 -1,-1 -0.552,0 -1,0.448 -1,1 0,5.767 0,11.433 0,14.335 0,0.795 0.316,1.559 0.879,2.121 0.562,0.563 1.325,0.879 2.121,0.879 h 4 c 0.552,0 1,-0.448 1,-1 0,-0.552 -0.448,-1 -1,-1 H 6 C 5.735,49.335 5.48,49.229 5.293,49.042 5.105,48.854 5,48.6 5,48.335 v -3 h 54 v 3 C 59,48.6 58.895,48.854 58.707,49.042 58.52,49.229 58.265,49.335 58,49.335 H 14 c -0.552,0 -1,0.448 -1,1 0,0.552 0.448,1 1,1 h 12.606 c -0.16,2.681 -0.855,6.146 -3.417,8 H 21.5 c -0.552,0 -1,0.448 -1,1 0,0.552 0.448,1 1,1 h 21 c 0.552,0 1,-0.448 1,-1 0,-0.552 -0.448,-1 -1,-1 h -1.689 c -2.562,-1.854 -3.257,-5.318 -3.417,-8 H 58 c 0.796,0 1.559,-0.316 2.121,-0.879 C 60.684,49.894 61,49.13 61,48.335 c 0,-6.028 0,-23.973 0,-30 0,-0.796 -0.316,-1.559 -0.879,-2.121 C 59.559,15.651 58.796,15.335 58,15.335 h -8.5 c -0.552,0 -1,0.448 -1,1 0,0.552 0.448,1 1,1 H 58 c 0.265,0 0.52,0.105 0.707,0.293 C 58.895,17.815 59,18.07 59,18.335 Z m -23.606,8 h -6.788 c -0.155,2.53 -0.785,5.68 -2.585,8 h 11.958 c -1.8,-2.32 -2.43,-5.47 -2.585,-8 z M 16,15.335 H 6 c -0.796,0 -1.559,0.316 -2.121,0.879 C 3.316,16.776 3,17.539 3,18.335 3,20.786 3,25.209 3,30 c 0,0.552 0.448,1 1,1 0.552,0 1,-0.448 1,-1 V 18.335 C 5,18.07 5.105,17.815 5.293,17.628 5.48,17.44 5.735,17.335 6,17.335 H 16 V 23 c 0,0.552 0.448,1 1,1 0.552,0 1,-0.448 1,-1 V 6 c 0,-0.552 0.448,-1 1,-1 0,0 25,0 25,0 0.552,0 1,0.448 1,1 V 9 H 22 c -0.552,0 -1,0.448 -1,1 0,0.552 0.448,1 1,1 H 45 V 25.001 L 39.679,25 c -0.29,0 -0.566,0.126 -0.756,0.345 -0.19,0.219 -0.276,0.51 -0.235,0.797 l 1.409,9.824 c 0.055,0.388 0.332,0.707 0.708,0.818 0.375,0.11 0.781,-0.009 1.037,-0.305 L 44.135,33.835 45,34.585 V 38 c 0,0.552 -0.448,1 -1,1 0,0 -25,0 -25,0 -0.552,0 -1,-0.448 -1,-1 V 27 c 0,-0.552 -0.448,-1 -1,-1 -0.552,0 -1,0.448 -1,1 v 11 c 0,1.657 1.343,3 3,3 h 25 c 1.657,0 3,-1.343 3,-3 v -1.681 l 2.046,1.774 c 0.417,0.362 1.049,0.317 1.411,-0.1 l 2.62,-3.022 c 0.362,-0.418 0.317,-1.049 -0.1,-1.411 l -4.911,-4.258 c 0,0 2.293,-2.645 2.293,-2.645 0.256,-0.295 0.316,-0.714 0.154,-1.07 -0.163,-0.356 -0.518,-0.585 -0.91,-0.585 H 47 V 6 C 47,4.343 45.657,3 44,3 H 19 C 17.343,3 16,4.343 16,6 Z M 7,37 v 2 c 0,0.552 0.448,1 1,1 0.552,0 1,-0.448 1,-1 V 37 C 9,36.448 8.552,36 8,36 7.448,36 7,36.448 7,37 Z m 37.69,-5.331 c -0.417,-0.362 -1.049,-0.317 -1.411,0.1 l -1.513,1.746 c 0,0 -0.934,-6.515 -0.934,-6.515 0,0 6.581,0.002 6.581,0.002 0,0 -1.513,1.745 -1.513,1.745 -0.362,0.417 -0.317,1.049 0.1,1.411 l 4.911,4.258 c 0,0 -1.31,1.511 -1.31,1.511 0,0 -4.911,-4.258 -4.911,-4.258 z M 9,34 V 21 C 9,20.448 8.552,20 8,20 7.448,20 7,20.448 7,21 v 13 c 0,0.552 0.448,1 1,1 0.552,0 1,-0.448 1,-1 z m 15,-7 c 0,-0.552 -0.448,-1 -1,-1 h -2 c -0.552,0 -1,0.448 -1,1 v 2 c 0,0.552 0.448,1 1,1 h 2 c 0.552,0 1,-0.448 1,-1 z m 2,2 h 10 c 0.552,0 1,-0.448 1,-1 0,-0.552 -0.448,-1 -1,-1 H 26 c -0.552,0 -1,0.448 -1,1 0,0.552 0.448,1 1,1 z m -2,-8 c 0,-0.552 -0.448,-1 -1,-1 h -2 c -0.552,0 -1,0.448 -1,1 v 2 c 0,0.552 0.448,1 1,1 h 2 c 0.552,0 1,-0.448 1,-1 z m 2,2 h 16 c 0.552,0 1,-0.448 1,-1 0,-0.552 -0.448,-1 -1,-1 H 26 c -0.552,0 -1,0.448 -1,1 0,0.552 0.448,1 1,1 z m -2,-8 c 0,-0.552 -0.448,-1 -1,-1 h -2 c -0.552,0 -1,0.448 -1,1 v 2 c 0,0.552 0.448,1 1,1 h 2 c 0.552,0 1,-0.448 1,-1 z m 2,2 h 16 c 0.552,0 1,-0.448 1,-1 0,-0.552 -0.448,-1 -1,-1 H 26 c -0.552,0 -1,0.448 -1,1 0,0.552 0.448,1 1,1 z"
       id="path2"
       style="fill:#ffffff;fill-opacity:1" /></g></svg>
