<?xml version="1.0" encoding="UTF-8" standalone="no"?>
<!-- Created with Inkscape (http://www.inkscape.org/) -->

<svg
   width="58.577393mm"
   height="79.87825mm"
   viewBox="0 0 58.577393 79.87825"
   version="1.1"
   id="svg5"
   xml:space="preserve"
   inkscape:export-filename="1.png"
   inkscape:export-xdpi="96"
   inkscape:export-ydpi="96"
   sodipodi:docname="4.svg"
   xmlns:inkscape="http://www.inkscape.org/namespaces/inkscape"
   xmlns:sodipodi="http://sodipodi.sourceforge.net/DTD/sodipodi-0.dtd"
   xmlns="http://www.w3.org/2000/svg"
   xmlns:svg="http://www.w3.org/2000/svg"><sodipodi:namedview
     id="namedview7"
     pagecolor="#ffffff"
     bordercolor="#000000"
     borderopacity="0.25"
     inkscape:showpageshadow="2"
     inkscape:pageopacity="0.0"
     inkscape:pagecheckerboard="0"
     inkscape:deskcolor="#d1d1d1"
     inkscape:document-units="mm"
     showgrid="false"
     inkscape:zoom="0.46769781"
     inkscape:cx="-117.5973"
     inkscape:cy="461.83667"
     inkscape:window-width="1366"
     inkscape:window-height="705"
     inkscape:window-x="-8"
     inkscape:window-y="-8"
     inkscape:window-maximized="1"
     inkscape:current-layer="layer1" /><defs
     id="defs2" /><g
     inkscape:label="Capa 1"
     inkscape:groupmode="layer"
     id="layer1"
     transform="translate(-132.65369,-101.81108)"><g
       id="outline"
       transform="matrix(1.3313044,0,0,1.3313044,119.34064,99.148464)"
       style="fill:#ffffff;fill-opacity:1"><path
         d="M 53,4 H 40 V 3 A 1,1 0 0 0 39,2 H 25 A 1,1 0 0 0 24,3 V 4 H 11 a 1,1 0 0 0 -1,1 v 56 a 1,1 0 0 0 1,1 h 42 a 1,1 0 0 0 1,-1 V 5 A 1,1 0 0 0 53,4 Z M 26,4 H 38 V 7 A 1,1 0 0 1 37,8 H 27 A 1,1 0 0 1 26,7 Z m 1,6 H 48 V 56 H 16 V 10 Z M 52,60 H 12 V 6 h 12 v 1 a 2.966,2.966 0 0 0 0.184,1 H 15 a 1,1 0 0 0 -1,1 v 48 a 1,1 0 0 0 1,1 h 34 a 1,1 0 0 0 1,-1 V 9 A 1,1 0 0 0 49,8 H 39.816 A 2.966,2.966 0 0 0 40,7 V 6 h 12 z"
         id="path39"
         style="fill:#ffffff;fill-opacity:1" /><path
         d="m 24,26 a 6,6 0 0 0 4.648,-9.788 l 1.165,-1.631 a 1,1 0 0 0 -1.626,-1.162 l -1.054,1.474 A 6,6 0 1 0 24,26 Z m 0,-10 a 3.95,3.95 0 0 1 1.961,0.535 l -2.089,2.923 -1.165,-1.165 a 1,1 0 0 0 -1.414,1.414 l 2,2 A 1,1 0 0 0 24,22 c 0.027,0 0.055,0 0.082,0 a 1,1 0 0 0 0.731,-0.416 l 2.6,-3.639 A 3.954,3.954 0 0 1 28,20 4,4 0 1 1 24,16 Z"
         id="path41"
         style="fill:#ffffff;fill-opacity:1" /><path
         d="m 24,40 a 6,6 0 0 0 4.648,-9.788 l 1.165,-1.631 a 1,1 0 0 0 -1.626,-1.162 l -1.054,1.474 A 6,6 0 1 0 24,40 Z m 0,-10 a 3.95,3.95 0 0 1 1.961,0.535 l -2.089,2.923 -1.165,-1.165 a 1,1 0 0 0 -1.414,1.414 l 2,2 A 1,1 0 0 0 24,36 c 0.027,0 0.055,0 0.082,0 a 1,1 0 0 0 0.731,-0.416 l 2.6,-3.639 A 3.954,3.954 0 0 1 28,34 4,4 0 1 1 24,30 Z"
         id="path43"
         style="fill:#ffffff;fill-opacity:1" /><path
         d="m 24,54 a 6,6 0 0 0 4.648,-9.788 l 1.165,-1.631 a 1,1 0 0 0 -1.626,-1.162 l -1.054,1.474 A 6,6 0 1 0 24,54 Z m 0,-10 a 3.95,3.95 0 0 1 1.961,0.535 l -2.089,2.923 -1.165,-1.165 a 1,1 0 0 0 -1.414,1.414 l 2,2 A 1,1 0 0 0 24,50 c 0.027,0 0.055,0 0.082,0 a 1,1 0 0 0 0.731,-0.416 l 2.6,-3.639 A 3.954,3.954 0 0 1 28,48 4,4 0 1 1 24,44 Z"
         id="path45"
         style="fill:#ffffff;fill-opacity:1" /><path
         d="m 34,20 h 9 a 1,1 0 0 0 0,-2 h -9 a 1,1 0 0 0 0,2 z"
         id="path47"
         style="fill:#ffffff;fill-opacity:1" /><path
         d="m 34,24 h 9 a 1,1 0 0 0 0,-2 h -9 a 1,1 0 0 0 0,2 z"
         id="path49"
         style="fill:#ffffff;fill-opacity:1" /><path
         d="m 34,34 h 9 a 1,1 0 0 0 0,-2 h -9 a 1,1 0 0 0 0,2 z"
         id="path51"
         style="fill:#ffffff;fill-opacity:1" /><path
         d="m 34,38 h 9 a 1,1 0 0 0 0,-2 h -9 a 1,1 0 0 0 0,2 z"
         id="path53"
         style="fill:#ffffff;fill-opacity:1" /><path
         d="m 34,48 h 9 a 1,1 0 0 0 0,-2 h -9 a 1,1 0 0 0 0,2 z"
         id="path55"
         style="fill:#ffffff;fill-opacity:1" /><path
         d="m 34,52 h 9 a 1,1 0 0 0 0,-2 h -9 a 1,1 0 0 0 0,2 z"
         id="path57"
         style="fill:#ffffff;fill-opacity:1" /></g></g></svg>
